<svg xmlns="http://www.w3.org/2000/svg" width="28" height="28" viewBox="0 0 28 28">
    <path data-name="Icon awesome-whatsapp" d="M23.806 6.319A13.879 13.879 0 0 0 1.969 23.063L0 30.25l7.356-1.931a13.833 13.833 0 0 0 6.631 1.688h.006A14.008 14.008 0 0 0 28 16.131a13.93 13.93 0 0 0-4.194-9.812zm-9.813 21.35a11.512 11.512 0 0 1-5.875-1.606l-.419-.25-4.361 1.143L4.5 22.7l-.275-.437a11.555 11.555 0 1 1 21.431-6.131 11.661 11.661 0 0 1-11.662 11.537zm6.325-8.638c-.344-.175-2.05-1.013-2.369-1.125s-.55-.175-.781.175-.894 1.125-1.1 1.363-.406.262-.75.087a9.437 9.437 0 0 1-4.718-4.125c-.356-.612.356-.569 1.019-1.894a.642.642 0 0 0-.031-.606c-.087-.175-.781-1.881-1.069-2.575-.281-.675-.569-.581-.781-.594s-.431-.013-.662-.013a1.284 1.284 0 0 0-.925.431 3.9 3.9 0 0 0-1.213 2.895 6.792 6.792 0 0 0 1.412 3.587 15.492 15.492 0 0 0 5.925 5.237c2.2.95 3.063 1.031 4.162.869a3.551 3.551 0 0 0 2.338-1.65 2.9 2.9 0 0 0 .2-1.65c-.081-.156-.312-.243-.656-.412z" transform="translate(0 -2.25)" style="fill:#18103d"/>
</svg>
